<?xml version="1.0" encoding="utf-8"?>
<!-- Generator: Adobe Illustrator 16.0.0, SVG Export Plug-In . SVG Version: 6.00 Build 0)  -->
<!DOCTYPE svg PUBLIC "-//W3C//DTD SVG 1.1//EN" "http://www.w3.org/Graphics/SVG/1.1/DTD/svg11.dtd">
<svg version="1.1" id="Capa_1" xmlns="http://www.w3.org/2000/svg" xmlns:xlink="http://www.w3.org/1999/xlink" x="0px" y="0px"
	 width="1300px" height="1300px" viewBox="0 0 1300 1300" enable-background="new 0 0 1300 1300" xml:space="preserve">
<g>
	<path fill="#010002" stroke="#010002" stroke-width="0.15" stroke-linecap="round" stroke-miterlimit="10" d="M343.228,541.736
		c-12.688-12.959-28.411-21.525-45.653-25.05V289.991c0-42.888-31.231-78.673-72.004-85.993
		c-8.133-39.635-42.4-70.324-83.499-71.462c-23.965-0.65-46.413,8.188-63.438,24.833c-17.242,16.646-26.677,38.984-26.677,62.57
		v442.329c0,23.098,5.205,46.25,15.073,67.07l52.919,111.965c2.928,6.344,9.218,9.977,15.724,9.977c2.603,0,5.097-0.597,7.482-1.682
		c8.784-4.012,12.579-14.53,8.35-23.423L98.694,714.427c-7.482-16.157-11.711-34.267-11.711-52.159V219.938
		c0-14.314,5.639-27.543,15.833-37.574c10.41-9.868,24.074-15.182,38.171-14.856c28.303,0.813,51.075,25.05,51.075,54.003v381.005
		c0,23.314,9.326,45.274,25.917,61.865l143.9,143.467c16.375,16.482,25.592,38.604,25.592,61.974
		c0,9.543,7.808,17.404,17.458,17.404c9.868,0,17.567-7.861,17.567-17.404c0-32.695-12.688-63.763-35.894-86.59L242.812,639.549
		c-9.977-9.813-15.398-22.935-15.398-37.032c0-28.899,23.423-52.594,52.485-52.594c14.423,0,27.978,5.693,38.063,16.212
		c0.108,0.163,0.108,0.217,0.217,0.217l213.085,212.706c42.942,42.726,66.582,99.928,66.582,160.817v192.428H242.812
		c13.989-43.051,11.061-89.192-8.567-130.779l-52.702-112.02c-4.121-8.458-14.748-12.362-23.423-8.133
		c-8.567,4.013-12.471,14.531-8.35,23.261l52.811,111.856c18.869,40.014,18.326,85.83-1.518,125.303
		c-2.494,5.53-2.494,12.091,0.867,17.296c3.253,5.043,8.675,8.188,14.748,8.188h398.627c9.868,0,17.676-7.808,17.676-17.513V939.875
		c0-70.216-27.544-136.147-76.993-185.65L343.228,541.736z M227.414,532.572V240.434c20.278,7.319,34.917,26.568,34.917,49.557
		v226.695C249.535,519.289,237.607,524.819,227.414,532.572z"/>
	<path fill="#010002" stroke="#010002" stroke-width="0.15" stroke-linecap="round" stroke-miterlimit="10" d="M1222.354,157.369
		c-17.025-16.646-39.689-25.483-63.546-24.833c-41.1,1.139-75.583,31.827-83.391,71.462c-40.991,7.32-72.005,43.105-72.005,85.993
		v226.695c-17.134,3.524-33.074,12.091-45.545,25.05L745,754.225c-49.666,49.503-76.993,115.435-76.993,185.65v209.887
		c0,9.705,7.808,17.513,17.676,17.513h398.302c6.072,0,11.82-3.145,14.965-8.188c3.253-5.205,3.361-11.766,0.867-17.296
		c-19.844-39.473-20.387-85.289-1.409-125.303l135.55-287.15c9.869-20.82,15.074-43.973,15.074-67.07V219.938
		C1249.031,196.353,1239.488,174.014,1222.354,157.369L1222.354,157.369z M1073.574,240.434v292.138
		c-10.193-7.753-22.014-13.284-34.918-15.886V289.991C1038.656,267.002,1053.079,247.753,1073.574,240.434L1073.574,240.434z
		 M1213.896,662.268c0,17.893-4.121,36.002-11.712,52.159l-135.551,287.097c-19.52,41.587-22.447,87.729-8.675,130.779H703.033
		V939.875c0-60.89,23.748-118.092,66.69-160.817l212.978-212.706c0.217,0,0.217-0.054,0.325-0.217
		c10.085-10.519,23.531-16.212,38.063-16.212c29.063,0,52.485,23.694,52.485,52.594c0,14.097-5.313,27.219-15.398,37.032
		L914.384,783.232c-22.989,22.827-36.111,53.895-36.111,86.59c0,9.543,7.917,17.404,17.567,17.404
		c9.868,0,17.676-7.861,17.676-17.404c0-23.369,9.109-45.491,25.593-61.974l143.9-143.467
		c16.591-16.591,25.809-38.551,25.809-61.865V221.511c0-28.954,22.772-53.19,50.967-54.003c14.314-0.325,27.978,4.988,38.171,14.856
		c10.302,10.031,15.941,23.26,15.941,37.574V662.268z"/>
	<path fill="#010002" d="M852.464,401.793c0-69.944-57.039-126.713-126.875-126.713c-24.291,0-47.605,6.832-67.667,19.411
		c-20.17-12.579-43.702-19.411-67.884-19.411c-69.727,0-126.767,56.769-126.767,126.713c0,135.984,174.914,232.117,182.505,235.804
		c3.687,2.114,7.808,3.145,12.146,3.145c4.121,0,8.133-1.03,11.82-3.145C677.441,633.91,852.247,537.615,852.464,401.793z
		 M657.922,586.034c-36.544-22.718-143.792-96.078-143.792-184.24c0-41.913,34.267-76.125,75.908-76.125
		c18.977,0,36.87,7.103,50.967,19.465c9.326,8.729,24.291,8.729,33.942,0c13.88-12.362,31.772-19.465,50.642-19.465
		c41.749,0,75.908,34.213,75.908,76.125C801.497,489.956,694.467,563.315,657.922,586.034z"/>
</g>
</svg>
